<?xml version="1.0" encoding="UTF-8" standalone="no"?>
<!DOCTYPE svg  PUBLIC '-//W3C//DTD SVG 1.1//EN'  'http://www.w3.org/Graphics/SVG/1.1/DTD/svg11.dtd'>
<svg xmlns="http://www.w3.org/2000/svg">
<defs>
<font id="AgilitaLTPro-BoldCond" horiz-adv-x="440">
<font-face underline-position="-50" font-weight="600" descent="-200" panose-1="2 11 5 6 5 0 0 2 0 4" units-per-em="1000" unicode-range="U+0020-25CA" font-stretch="condensed" bbox="-126 -386 1193 932" x-height="490" underline-thickness="50" font-family="AgilitaLTPro" ascent="800" cap-height="680"/>
<missing-glyph horiz-adv-x="1000"/>
<glyph glyph-name=".notdef" horiz-adv-x="1000"/>
<glyph glyph-name=".null" horiz-adv-x="1000"/>
<glyph glyph-name="nonmarkingreturn" horiz-adv-x="333"/>
<glyph glyph-name="space" horiz-adv-x="220" unicode=" "/>
<glyph glyph-name="exclam" horiz-adv-x="220" unicode="!" d="M181 61q0 -30 -20.5 -50.5t-50.5 -20.5t-50.5 20.5t-20.5 50.5t20.5 51.5t50.5 21.5t50.5 -21.5t20.5 -51.5zM173 685l-13 -477h-100l-13 477h126z"/>
<glyph glyph-name="quotedbl" horiz-adv-x="400" unicode='&quot;' d="M170 660l-10 -219h-100l-10 219h120zM350 660l-10 -219h-101l-10 219h121z"/>
<glyph glyph-name="numbersign" d="M252 321h-54l-17 -119h54zM424 321h-80l-17 -119h72v-83h-84l-17 -119h-92l17 119h-54l-17 -119h-93l17 119h-60v83h72l17 119h-66v83h78l16 115h93l-16 -115h54l16 115h92l-16 -115h68v-83z" unicode="#"/>
<glyph glyph-name="dollar" d="M386 175q0 -72 -39 -114t-97 -55l-5 -91h-106l6 90q-24 4 -48.5 11t-36.5 12l-12 5l28 92q51 -21 104 -21q37 0 62 19.5t25 51.5q0 28 -21.5 55t-52.5 51t-61.5 50.5t-52 64t-21.5 80.5q0 70 37.5 111.5t92.5 55.5l6 92h106l-6 -91q21 -3 41.5 -9t30.5 -10l10 -4l-28 -88 q-46 16 -88 16q-38 0 -61.5 -17.5t-23.5 -52.5q0 -26 21.5 -52t52.5 -50.5t62.5 -51.5t53 -66t21.5 -84z" unicode="$"/>
<glyph glyph-name="percent" horiz-adv-x="940" unicode="%" d="M300 536q0 53 -16.5 84t-38.5 31q-24 0 -40 -29.5t-16 -83.5q0 -53 16.5 -84t39.5 -31q24 0 39.5 29.5t15.5 83.5zM751 177q0 53 -16.5 84t-39.5 31q-24 0 -39.5 -29.5t-15.5 -83.5q0 -53 16.5 -84t38.5 -31q24 0 40 29.5t16 83.5zM393 536q0 -82 -41 -135.5t-107 -53.5 q-69 0 -108.5 54.5t-39.5 136.5t41 135.5t107 53.5q69 0 108.5 -54.5t39.5 -136.5zM666 715l-311 -739h-90l310 739h91zM843 177q0 -82 -41 -135.5t-107 -53.5q-69 0 -108.5 54.5t-39.5 136.5t41 135.5t107 53.5q69 0 108.5 -54.5t39.5 -136.5z"/>
<glyph glyph-name="ampersand" horiz-adv-x="521" unicode="&amp;" d="M304 97v222h-44q-39 0 -66 -27t-27 -95q0 -58 26.5 -82t60.5 -24zM491 319h-70v-281q-10 -6 -26.5 -14t-64 -22t-89.5 -14q-82 0 -140 51t-58 157q0 80 32 122.5t71 57.5l-1 1q-32 14 -60 50.5t-28 95.5q0 88 53 136t127 48q34 0 67.5 -8.5t50.5 -16.5l17 -8l-32 -84 q-36 10 -67 10q-15 0 -29 -3t-30 -11.5t-25.5 -27t-9.5 -45.5q0 -95 109 -95h203v-99z"/>
<glyph glyph-name="quotesingle" horiz-adv-x="220" unicode="&apos;" d="M170 660l-10 -219h-100l-10 219h120z"/>
<glyph glyph-name="parenleft" horiz-adv-x="340" unicode="(" d="M330 -92l-47 -83q-10 5 -27 15t-60.5 48.5t-76.5 85.5t-60 128.5t-27 174.5q0 68 14 129.5t36 106t49 82t53.5 61.5t48.5 41t36 25l14 7l47 -83q-7 -4 -19 -12t-42 -39t-52.5 -69t-41.5 -105t-19 -144t18 -143.5t43.5 -106t51 -68.5t43.5 -40z"/>
<glyph glyph-name="parenright" horiz-adv-x="340" unicode=")" d="M308 277q0 -93 -26 -174t-62.5 -130t-73 -84t-62.5 -49l-26 -15l-47 83q4 2 10 6t24 19t34.5 33.5t36.5 49.5t34 67t24 87t10 107t-9.5 107t-25 87t-33.5 67t-36.5 50t-34 33t-25.5 19l-9 6l47 83q10 -5 27 -15t60 -48.5t76 -85.5t60 -128.5t27 -174.5z"/>
<glyph glyph-name="asterisk" d="M358 529l-33 -58l-75 48l3 -100h-66l3 100l-75 -48l-33 58l79 41l-79 42l33 57l75 -48l-3 100h66l-3 -100l75 48l33 -57l-79 -42z" unicode="*"/>
<glyph glyph-name="plus" d="M422 191h-151v-169h-102v169h-151v102h151v169h102v-169h151v-102z" unicode="+"/>
<glyph glyph-name="comma" horiz-adv-x="220" unicode="," d="M170 124q0 -167 -103 -259l-65 42q46 77 49 201z"/>
<glyph glyph-name="period" horiz-adv-x="220" unicode="." d="M181 61q0 -30 -20.5 -50.5t-50.5 -20.5t-50.5 20.5t-20.5 50.5t20.5 51.5t50.5 21.5t50.5 -21.5t20.5 -51.5z"/>
<glyph glyph-name="slash" d="M387 660l-218 -660h-116l218 660h116z" unicode="/"/>
<glyph glyph-name="zero" d="M287 321q0 108 -19.5 173t-47.5 65q-32 0 -50 -61t-18 -172q0 -108 19.5 -173t48.5 -65q31 0 49 61t18 172zM404 320q0 -146 -49.5 -239t-134.5 -93q-59 0 -102 46.5t-63 121.5t-20 170q0 146 50 239t135 93q88 0 136 -95.5t48 -242.5z" unicode="0"/>
<glyph glyph-name="one" d="M399 0h-319v95h102v443h-2l-94 -61l-58 86l184 102l85 -35v-535h102v-95z" unicode="1"/>
<glyph glyph-name="two" d="M383 0h-337l-15 85q67 66 114 128q108 145 108 249q0 96 -80 96q-22 0 -49 -7t-42 -13l-16 -7l-24 81q91 46 169 46q73 0 118 -48t45 -139q0 -55 -23 -117t-58 -113.5t-62 -85.5t-48 -54v-2l200 3v-102z" unicode="2"/>
<glyph glyph-name="three" d="M381 186q0 -55 -27 -95.5t-71.5 -61.5t-91 -31t-94.5 -10l-58 5l25 81q17 -2 36 -2q20 0 42.5 4.5t51 15.5t46.5 36.5t18 61.5q0 52 -34 74.5t-85 22.5l-43 -4l-5 80q144 23 144 118q0 36 -22 57t-64 21q-17 0 -38 -4.5t-33 -9.5l-12 -5l-24 79q74 39 148 39 q67 0 116 -41t49 -113q0 -108 -102 -164v-2q56 -12 89 -50q39 -44 39 -102z" unicode="3"/>
<glyph glyph-name="four" d="M111 235l130 2l2 280h-2zM424 143h-68v-143h-115v143h-221l-14 80l227 442l123 -38v-390l68 1v-95z" unicode="4"/>
<glyph glyph-name="five" d="M376 219q0 -106 -84 -168.5t-201 -62.5l-54 4l17 83q16 -2 27 -2q69 0 115.5 41.5t46.5 104.5q0 110 -143 110l-30 32l16 287h273v-99h-169l-8 -140q33 -2 63.5 -11.5t61.5 -29.5t50 -58.5t19 -90.5z" unicode="5"/>
<glyph glyph-name="six" d="M289 198q0 38 -15.5 64t-44.5 26q-16 0 -36 -10.5t-32 -21.5l-12 -10q0 -71 19 -117t55 -46q35 0 50.5 34.5t15.5 80.5zM408 198q0 -90 -49.5 -150t-134.5 -60q-94 0 -143 73.5t-49 188.5q0 216 160 334q81 61 184 76l12 -80q-88 -19 -148 -74q-66 -61 -83 -171 q6 5 16 13t39 21.5t55 13.5q59 0 100 -53.5t41 -131.5z" unicode="6"/>
<glyph glyph-name="seven" d="M409 570l-248 -596l-103 52l216 522l-238 -1v101h335z" unicode="7"/>
<glyph glyph-name="eight" d="M290 162q0 71 -74 129q-27 -20 -50 -53.5t-23 -75.5q0 -41 23 -63t51 -22t50.5 22t22.5 63zM278 501q0 33 -17.5 53.5t-43.5 20.5q-25 0 -43 -20.5t-18 -53.5q0 -59 62 -108q60 47 60 108zM406 155q0 -82 -55 -124.5t-134 -42.5t-134 43t-55 124q0 61 37 108.5t85 79.5 q-24 20 -37.5 32t-31.5 33.5t-26.5 45.5t-8.5 52q0 70 49.5 111t121.5 41q71 0 120.5 -41t49.5 -111q0 -87 -105 -165q124 -86 124 -186z" unicode="8"/>
<glyph glyph-name="nine" d="M290 401q0 71 -19 117t-55 46q-35 0 -50.5 -34.5t-15.5 -80.5q0 -38 15.5 -64t44.5 -26q16 0 36 10.5t32 20.5zM407 397q0 -216 -160 -334q-80 -60 -184 -75l-12 79q88 19 148 74q66 61 83 171q-6 -5 -16 -13t-39 -21.5t-55 -13.5q-59 0 -100 53.5t-41 131.5 q0 90 49.5 150.5t134.5 60.5q94 0 143 -74t49 -189z" unicode="9"/>
<glyph glyph-name="colon" horiz-adv-x="220" unicode=":" d="M181 61q0 -30 -20.5 -50.5t-50.5 -20.5t-50.5 20.5t-20.5 50.5t20.5 51.5t50.5 21.5t50.5 -21.5t20.5 -51.5zM181 383q0 -30 -20.5 -50.5t-50.5 -20.5t-50.5 20.5t-20.5 50.5t20.5 51.5t50.5 21.5t50.5 -21.5t20.5 -51.5z"/>
<glyph glyph-name="semicolon" horiz-adv-x="220" unicode=";" d="M171 124q0 -166 -104 -259l-64 42q45 75 48 201zM181 383q0 -30 -20.5 -50.5t-50.5 -20.5t-50.5 20.5t-20.5 50.5t20.5 51.5t50.5 21.5t50.5 -21.5t20.5 -51.5z"/>
<glyph glyph-name="less" d="M346 96l-72 -72l-218 218l218 218l72 -72l-146 -146z" unicode="&lt;"/>
<glyph glyph-name="equal" d="M422 78h-404v102h404v-102zM422 304h-404v102h404v-102z" unicode="="/>
<glyph glyph-name="greater" d="M384 242l-218 -218l-72 72l146 146l-146 146l72 72z" unicode="&gt;"/>
<glyph glyph-name="question" horiz-adv-x="370" unicode="?" d="M244 61q0 -30 -20.5 -50.5t-50.5 -20.5t-50.5 20.5t-20.5 50.5t20.5 51.5t50.5 21.5t50.5 -21.5t20.5 -51.5zM343 536q0 -110 -123 -184l1 -144h-98l-15 181l8 15q107 57 107 124q0 34 -20 50.5t-51 16.5q-18 0 -40 -5.5t-35 -11.5l-13 -5l-30 86q70 37 143 37 q74 0 120 -40t46 -120z"/>
<glyph glyph-name="at" horiz-adv-x="880" unicode="@" d="M853 277q0 -150 -99.5 -246.5t-239.5 -96.5q-120 0 -182 57t-62 134q0 46 20 79t53.5 49.5t67.5 24t73 7.5v17q-1 40 -13.5 58t-43.5 18q-17 0 -40.5 -6.5t-38.5 -13.5l-14 -6l-28 71q74 45 146 45q67 0 104 -45q35 -42 35 -116v-204h-106v104q-106 -2 -106 -85 q0 -48 35 -77t102 -29q100 0 163 69.5t63 191.5q0 114 -80 195.5t-197 81.5q-136 0 -231 -95t-95 -259q0 -89 30 -156.5t79 -104t102.5 -54t109.5 -17.5q31 0 59 2t41 4l12 2l10 -64q-56 -15 -156 -15q-51 0 -102.5 11t-106 40.5t-96 73.5t-68.5 116t-27 162q0 128 62.5 229 t162.5 153.5t215 52.5q161 0 274 -103t113 -255z"/>
<glyph glyph-name="A" horiz-adv-x="539" unicode="A" d="M339 255l-71 276h-2l-70 -276h143zM535 3l-132 -5l-44 168h-185l-43 -168l-127 5l207 677h116z"/>
<glyph glyph-name="B" horiz-adv-x="474" unicode="B" d="M336 207q0 51 -30.5 76.5t-75.5 25.5h-55v-210h35q57 0 91.5 26.5t34.5 81.5zM300 497q0 46 -25.5 69t-69.5 23h-30v-190h34q91 0 91 98zM455 198q0 -102 -69 -150t-183 -48h-143v680h127q230 0 230 -171q0 -55 -26 -93t-69 -52v-2q47 -6 83 -40q50 -47 50 -124z"/>
<glyph glyph-name="C" horiz-adv-x="439" unicode="C" d="M426 22q-68 -34 -140 -34q-109 0 -181 95.5t-72 256.5q0 151 78.5 251.5t191.5 100.5q30 0 61 -5t46 -11l16 -5l-29 -99q-31 10 -69 10q-72 0 -120.5 -69t-48.5 -175q0 -110 42.5 -171.5t107.5 -61.5q19 0 39.5 4.5t31.5 8.5l11 4z"/>
<glyph glyph-name="D" horiz-adv-x="560" unicode="D" d="M403 349q0 96 -50 161.5t-141 65.5h-30v-469h16q88 0 146.5 55t58.5 187zM527 353q0 -166 -87.5 -259.5t-277.5 -93.5h-102v680h142q85 0 150 -28.5t102 -76.5t55 -104t18 -118z"/>
<glyph glyph-name="E" horiz-adv-x="415" unicode="E" d="M390 0h-330v680h325v-104h-208v-180h181v-92h-181v-198h213v-106z"/>
<glyph glyph-name="F" horiz-adv-x="396" unicode="F" d="M385 576h-203v-182h176v-92h-176v-302h-122v680h325v-104z"/>
<glyph glyph-name="G" horiz-adv-x="521" unicode="G" d="M476 36q-8 -5 -23 -13t-62 -21.5t-94 -13.5q-119 0 -191.5 94.5t-72.5 257.5q0 153 79 252.5t201 99.5q36 0 69.5 -5t49.5 -11l16 -5l-30 -99q-30 10 -80 10q-81 0 -130 -68t-49 -176q0 -112 43.5 -173.5t117.5 -61.5q10 0 19 1.5t13 3.5l5 2v231h119v-305z"/>
<glyph glyph-name="H" horiz-adv-x="565" unicode="H" d="M506 0h-123v299h-201v-299h-122v680h122v-273h201v273h123v-680z"/>
<glyph glyph-name="I" horiz-adv-x="250" unicode="I" d="M186 0h-122v680h122v-680z"/>
<glyph glyph-name="J" horiz-adv-x="250" unicode="J" d="M186 29q0 -99 -32 -168t-100 -144l-69 56q38 50 57 102q22 59 22 138v667h122v-651z"/>
<glyph glyph-name="K" horiz-adv-x="508" unicode="K" d="M490 3l-136 -5l-171 345h-1v-343h-122v680h122v-332h1l181 334l123 -5l-177 -325z"/>
<glyph glyph-name="L" horiz-adv-x="400" unicode="L" d="M390 0h-330v680h122v-574h208v-106z"/>
<glyph glyph-name="M" horiz-adv-x="723" unicode="M" d="M715 2l-125 -4l-62 460h-2l-109 -458h-118l-107 458h-2l-63 -460l-119 4l118 680l113 -4l119 -507h2l124 507l113 4z"/>
<glyph glyph-name="N" horiz-adv-x="565" unicode="N" d="M506 5l-110 -8l-230 472l-1 -2l4 -467h-109v675l110 8l230 -470l1 -1l-4 468h109v-675z"/>
<glyph glyph-name="O" horiz-adv-x="556" unicode="O" d="M398 337q0 109 -34.5 173.5t-85.5 64.5q-54 0 -86.5 -62t-32.5 -170q0 -109 34 -173.5t85 -64.5q55 0 87.5 62t32.5 170zM523 337q0 -162 -69 -255.5t-176 -93.5q-108 0 -176.5 96.5t-68.5 258.5q0 161 69 255t176 94q108 0 176.5 -96.5t68.5 -258.5z"/>
<glyph glyph-name="P" horiz-adv-x="466" unicode="P" d="M328 470q0 118 -110 118h-36v-225q23 -8 49 -8q42 0 69.5 31t27.5 84zM448 472q0 -98 -63.5 -154.5t-148.5 -56.5l-54 6v-267h-122v680h146q242 0 242 -208z"/>
<glyph glyph-name="Q" horiz-adv-x="556" unicode="Q" d="M398 335q0 111 -34.5 175.5t-85.5 64.5q-55 0 -87 -62t-32 -172q0 -112 34 -176t85 -64q55 0 87.5 62t32.5 172zM523 337q0 -62 -10 -114.5t-26.5 -86t-36.5 -59.5t-39.5 -39.5t-36 -22t-26.5 -10.5l-10 -2v-2l125 -106l-76 -96l-210 203q-33 32 -50.5 52.5t-43.5 62.5 t-38 98t-12 128q0 161 69 255t176 94q108 0 176.5 -96.5t68.5 -258.5z"/>
<glyph glyph-name="R" horiz-adv-x="501" unicode="R" d="M320 484q0 51 -28 77.5t-76 26.5h-36v-212h35q49 0 77 28t28 80zM502 4l-136 -6l-99 217q-11 26 -23 44q-18 25 -48 26h-16v-285h-120v680h149q233 0 233 -186q0 -78 -44.5 -122.5t-86.5 -49.5v-1q20 -6 35 -25.5t42 -70.5z"/>
<glyph glyph-name="S" horiz-adv-x="391" unicode="S" d="M369 177q0 -94 -58.5 -141.5t-136.5 -47.5q-38 0 -78 9t-61 17l-21 9l29 99q55 -23 110 -23q39 0 65 21t26 56q0 31 -22.5 60.5t-55 55.5t-64.5 55t-54.5 70t-22.5 88q0 93 57.5 140t130.5 47q34 0 70 -7.5t55 -14.5l19 -8l-28 -94q-49 17 -92 17q-40 0 -64.5 -19.5 t-24.5 -57.5q0 -29 23 -57.5t55.5 -55t64.5 -56t55 -71.5t23 -91z"/>
<glyph glyph-name="T" horiz-adv-x="436" unicode="T" d="M427 578h-148v-578h-122v578h-149v102h419v-102z"/>
<glyph glyph-name="U" horiz-adv-x="524" unicode="U" d="M469 225q0 -114 -57.5 -175.5t-149.5 -61.5q-94 0 -150 63t-56 179v450h122v-443q0 -141 87 -141q85 0 85 141v443h119v-455z"/>
<glyph glyph-name="V" horiz-adv-x="499" unicode="V" d="M494 677l-183 -677h-124l-183 677l132 5l116 -532h2l114 532z"/>
<glyph glyph-name="W" horiz-adv-x="759" unicode="W" d="M755 677l-153 -677h-123l-100 476h-2l-97 -476h-122l-154 677l129 5l92 -519h2l93 512h123l94 -512h2l90 519z"/>
<glyph glyph-name="X" horiz-adv-x="452" unicode="X" d="M450 3l-134 -5l-89 261l-1 -2l-93 -259l-131 6l161 340l-149 331l132 7l85 -246l1 1l85 245l128 -6l-151 -327z"/>
<glyph glyph-name="Y" horiz-adv-x="476" unicode="Y" d="M474 677l-176 -390v-287h-122v287l-174 389l130 6l107 -297h2l106 297z"/>
<glyph glyph-name="Z" horiz-adv-x="460" unicode="Z" d="M436 0h-413l-11 102l277 471v1h-250v106h385l11 -99l-277 -472l1 -1h277v-108z"/>
<glyph glyph-name="bracketleft" horiz-adv-x="340" unicode="[" d="M273 -160h-205v875h205v-86h-89v-703h89v-86z"/>
<glyph glyph-name="backslash" d="M385 0h-113l-217 660h113z" unicode="\"/>
<glyph glyph-name="bracketright" horiz-adv-x="340" unicode="]" d="M272 -160h-205v86h89v703h-89v86h205v-875z"/>
<glyph glyph-name="asciicircum" d="M444 254l-72 -72l-152 147l-152 -147l-72 72l224 213z" unicode="^"/>
<glyph glyph-name="underscore" horiz-adv-x="500" unicode="_" d="M500 -386h-500v86h500v-86z"/>
<glyph glyph-name="grave" horiz-adv-x="278" unicode="`" d="M247 600l-43 -52l-180 113l67 87z"/>
<glyph glyph-name="a" horiz-adv-x="414" unicode="a" d="M248 115v116q-47 0 -79.5 -20t-32.5 -67q0 -31 14 -47.5t36 -16.5q14 0 29.5 9t24.5 17zM366 0h-104l-7 49h-2q-5 -7 -14.5 -17t-38.5 -27t-59 -17q-49 0 -85.5 38.5t-36.5 109.5q0 48 21 83t56 52.5t72.5 25.5t79.5 8v14q0 41 -13.5 63.5t-50.5 22.5q-20 0 -46.5 -7.5 t-43.5 -15.5l-16 -7l-29 81q85 47 166 47q77 0 117 -50q34 -42 34 -124v-329z"/>
<glyph glyph-name="b" horiz-adv-x="456" unicode="b" d="M308 247q0 59 -16 98.5t-47 39.5q-14 0 -33 -10.5t-30 -21.5l-12 -11v-250q21 -9 45 -9q43 0 68 43.5t25 120.5zM432 261q0 -127 -54 -200t-153 -73q-36 0 -80 11t-70 23l-26 11v703h121v-299q7 7 19.5 18t44 29.5t55.5 18.5q64 0 103.5 -73t39.5 -169z"/>
<glyph glyph-name="c" horiz-adv-x="344" unicode="c" d="M338 38q-7 -6 -19.5 -14t-49.5 -22t-72 -14q-70 0 -121 65t-51 175q0 115 58.5 195t144.5 80q24 0 49 -5.5t39 -11.5l13 -6l-29 -83q-21 7 -44 7q-45 0 -76.5 -46t-31.5 -124q0 -70 26 -108.5t65 -38.5q15 0 31.5 6t25.5 12l10 6z"/>
<glyph glyph-name="d" horiz-adv-x="462" unicode="d" d="M293 146v219q-28 20 -59 20q-39 0 -62.5 -41t-23.5 -108q0 -57 19.5 -93t50.5 -36q15 0 33.5 9.5t30.5 19.5zM413 0h-111l-5 51h-2q-7 -7 -19.5 -17.5t-45 -28t-57.5 -17.5q-68 0 -108 71t-40 180q0 101 47 182.5t124 81.5q23 0 47.5 -11.5t36.5 -23.5l13 -11v279h120 v-736z"/>
<glyph glyph-name="e" horiz-adv-x="411" unicode="e" d="M281 303q0 37 -14 73.5t-42 36.5q-32 0 -52.5 -40t-25.5 -80zM390 251l-10 -21l-231 -8q0 -33 8 -62t32 -52t61 -23q38 0 98 30l30 -71q-10 -8 -27.5 -18.5t-58 -24t-79.5 -13.5q-80 0 -134 69t-54 180q0 103 58 184.5t142 81.5q57 0 96 -42.5t54 -96.5t15 -113z"/>
<glyph glyph-name="f" horiz-adv-x="317" unicode="f" d="M342 731l-27 -82q-17 6 -39 6q-25 0 -41 -12q-29 -23 -29 -89v-64h103v-99h-103v-391h-121v391h-77v90l77 9v50q0 55 9 95.5t38 69.5q45 44 117 44q20 0 43.5 -4.5t36.5 -8.5z"/>
<glyph glyph-name="g" horiz-adv-x="452" unicode="g" d="M318 -88q0 22 -8.5 37.5t-18 23t-30 12.5t-30 6t-31.5 2q-6 -3 -16 -13t-23 -33.5t-13 -47.5q0 -38 24.5 -57t56.5 -19q33 0 61 22.5t28 66.5zM284 331q0 45 -18.5 69t-44.5 24q-25 0 -43.5 -23.5t-18.5 -64.5q0 -46 18.5 -71t43.5 -25t44 24t19 67zM446 503l-5 -113h-56 q13 -20 13 -58q0 -80 -51 -124.5t-127 -44.5l-25 3q-6 -2 -14.5 -6.5t-23 -18.5t-14.5 -29q0 -32 78 -34q36 -1 64 -5t58 -15t50 -28t33 -47t13 -70q0 -85 -61 -132t-150 -47q-85 0 -143 38t-58 112q0 69 69 129q-31 14 -48 32t-17 51q0 56 82 99q-70 47 -70 140 q0 77 50 122.5t127 45.5q27 0 53 -7.5t39 -15.5l13 -8z"/>
<glyph glyph-name="h" horiz-adv-x="458" unicode="h" d="M411 0h-121v311q0 72 -43 72q-16 0 -35 -9.5t-30 -19.5l-12 -10v-344h-121v736h121v-297q7 7 19.5 17.5t45.5 28.5t60 18q39 0 73 -32q43 -43 43 -150v-321z"/>
<glyph glyph-name="i" horiz-adv-x="228" unicode="i" d="M174 0h-120v490h120v-490zM183 657q0 -29 -20.5 -49t-48.5 -20t-48.5 20t-20.5 49t20.5 49.5t48.5 20.5t48.5 -20.5t20.5 -49.5z"/>
<glyph glyph-name="j" horiz-adv-x="228" unicode="j" d="M174 31q0 -102 -27.5 -166.5t-99.5 -138.5l-65 53q9 9 27.5 39t29.5 60q15 43 15 132v480h120v-459zM183 657q0 -29 -20.5 -49t-48.5 -20t-48.5 20t-20.5 49t20.5 49.5t48.5 20.5t48.5 -20.5t20.5 -49.5z"/>
<glyph glyph-name="k" d="M434 0h-140l-124 260v-260h-121v736h121v-464l125 218h131l-139 -218z" unicode="k"/>
<glyph glyph-name="l" horiz-adv-x="228" unicode="l" d="M185 8l-106 -24q-25 31 -25 75v677h120v-659q0 -39 11 -69z"/>
<glyph glyph-name="m" horiz-adv-x="659" unicode="m" d="M612 0h-120v314q0 72 -38 72q-13 0 -29.5 -10t-26.5 -20l-11 -11q1 -13 1 -32v-313h-115v314q0 72 -38 72q-13 0 -29.5 -10t-26.5 -20l-10 -9v-347h-120v490h110l6 -53q7 7 19.5 18t44.5 29.5t57 18.5q33 0 63 -30q8 -9 14.5 -19.5t8.5 -17.5l3 -6q8 8 21.5 20t49 32.5 t62.5 20.5q33 0 65 -30q39 -40 39 -152v-321z"/>
<glyph glyph-name="n" horiz-adv-x="458" unicode="n" d="M411 0h-121v311q0 72 -43 72q-16 0 -35 -9.5t-30 -19.5l-12 -10v-344h-121v490h111l6 -53q10 10 27 23t47 28t55 15q39 0 73 -32q43 -43 43 -150v-321z"/>
<glyph glyph-name="o" horiz-adv-x="456" unicode="o" d="M308 243q0 73 -23 116.5t-56 43.5q-37 0 -59 -41t-22 -115q0 -73 23.5 -116t57.5 -43q36 0 57.5 40t21.5 115zM432 243q0 -112 -55.5 -183.5t-148.5 -71.5q-97 0 -150 73.5t-53 185.5t55 184t149 72q97 0 150 -74t53 -186z"/>
<glyph glyph-name="p" horiz-adv-x="462" unicode="p" d="M314 255q0 58 -19.5 94t-50.5 36q-15 0 -33.5 -10t-29.5 -20l-11 -10v-218q28 -20 59 -20q39 0 62 40.5t23 107.5zM438 251q0 -100 -47 -181.5t-124 -81.5q-24 0 -48 11t-37 22l-12 11v-293h-121v751h112l5 -51h2q7 7 19.5 17.5t44.5 28.5t57 18q68 0 108.5 -71.5 t40.5 -180.5z"/>
<glyph glyph-name="q" horiz-adv-x="462" unicode="q" d="M293 141v216q-27 28 -59 28q-39 0 -62.5 -41.5t-23.5 -108.5q0 -57 21 -92.5t52 -35.5q15 0 33 8.5t28 16.5zM413 -261h-120v305h-2q-7 -6 -18.5 -15.5t-42 -25t-55.5 -15.5q-68 0 -109 70.5t-41 178.5q0 100 47.5 183t123.5 83q25 0 50 -14t38 -28l12 -14h2l4 43h111 v-751z"/>
<glyph glyph-name="r" horiz-adv-x="309" unicode="r" d="M305 496l-28 -124q-10 3 -21 3q-28 0 -51 -23t-35 -54v-298h-121v490h111l8 -79h2q9 26 36 59t64 33q9 0 17.5 -1.5t12.5 -3.5z"/>
<glyph glyph-name="s" horiz-adv-x="323" unicode="s" d="M306 137q0 -52 -27 -87.5t-62 -48.5t-74 -13q-30 0 -63.5 9t-51.5 18l-18 9l31 81q41 -21 86 -21q27 0 43 14.5t16 36.5q0 18 -17 36t-42 34.5t-49.5 35.5t-41.5 48t-17 65q0 71 51.5 110t111.5 39q28 0 58.5 -7.5t46.5 -14.5l16 -7l-27 -80q-39 15 -76 15q-27 0 -45 -13 t-18 -38q0 -24 26.5 -47.5t58 -41.5t58 -53t26.5 -79z"/>
<glyph glyph-name="t" horiz-adv-x="316" unicode="t" d="M308 14q-42 -26 -101 -26q-47 0 -78 25q-50 41 -50 135v243h-77v90l77 9l12 116l109 34v-150h95v-99h-95v-242q0 -40 13 -54q11 -14 36 -14l28 3z"/>
<glyph glyph-name="u" horiz-adv-x="458" unicode="u" d="M409 0h-110l-6 54q-11 -11 -28 -24t-47 -27.5t-54 -14.5q-43 0 -73 32q-44 43 -44 148v322h121v-312q0 -71 44 -71q16 0 35 9.5t30 19.5l11 9v345h121v-490z"/>
<glyph glyph-name="v" horiz-adv-x="421" unicode="v" d="M419 490l-147 -490h-115l-155 490h133l80 -365h2l77 365h125z"/>
<glyph glyph-name="w" horiz-adv-x="632" unicode="w" d="M630 490l-124 -490h-116l-70 323h-2l-75 -323h-115l-126 490h126l62 -348h2l73 348h112l74 -348h2l62 348h115z"/>
<glyph glyph-name="x" horiz-adv-x="404" unicode="x" d="M402 0h-133l-69 168l-2 -2l-71 -166h-125l143 248l-135 242h132l64 -159l2 1l64 158h124l-136 -233z"/>
<glyph glyph-name="y" horiz-adv-x="427" unicode="y" d="M425 490l-160 -520q-36 -117 -90 -171q-26 -26 -61 -42.5t-57 -20.5l-22 -3l-22 79q27 9 47 20t43.5 38.5t37.5 67.5l19 54l-158 498h133l80 -373h2l85 373h123z"/>
<glyph glyph-name="z" horiz-adv-x="380" unicode="z" d="M362 0h-336l-16 94l205 303l-184 -3v96h311l13 -89l-205 -303l212 3v-101z"/>
<glyph glyph-name="braceleft" horiz-adv-x="340" unicode="{" d="M274 -170q-14 -2 -27 -2q-80 0 -118 38q-18 18 -27 47.5t-10.5 51.5t-1.5 63v83q0 31 -1.5 49t-6 39t-16 31t-30.5 12v69q19 2 30.5 12.5t16 31.5t6 39t1.5 49v84q0 41 1.5 62.5t10.5 51t27 47.5q39 39 118 39l27 -3v-84q-42 0 -55 -19.5t-13 -77.5v-123q0 -52 -10 -84 t-44 -58q34 -26 44 -59t10 -85v-123q0 -58 13 -77t55 -19v-85z"/>
<glyph glyph-name="bar" horiz-adv-x="220" unicode="|" d="M165 -255h-110v970h110v-970z"/>
<glyph glyph-name="braceright" horiz-adv-x="340" unicode="}" d="M304 242q-19 -2 -30.5 -12t-16 -31t-6 -39t-1.5 -49v-83q0 -41 -1.5 -63t-10.5 -51.5t-27 -47.5q-38 -38 -119 -38l-26 2v85q42 0 55 19t13 77v123q0 52 10 85t44 59q-34 26 -44 58t-10 84v123q0 58 -13 77.5t-55 19.5v84q13 3 26 3q80 0 119 -39q18 -18 27 -47.5 t10.5 -51t1.5 -62.5v-84q0 -31 1.5 -49t6 -39t16 -31.5t30.5 -12.5v-69z"/>
<glyph glyph-name="asciitilde" d="M434 256q-64 -85 -129 -85q-32 0 -84.5 30t-76.5 30q-21 0 -44 -19.5t-36 -37.5l-57 69q63 84 129 84q32 0 84.5 -29.5t76.5 -29.5q21 0 44.5 19.5t35.5 36.5z" unicode="~"/>
<glyph glyph-name="uni00A0" horiz-adv-x="220" unicode=" "/>
<glyph glyph-name="exclamdown" horiz-adv-x="220" unicode="¡" d="M173 -208h-126l13 477h100zM181 416q0 -30 -20.5 -51t-50.5 -21t-50.5 21t-20.5 51t20.5 51t50.5 21t50.5 -21t20.5 -51z"/>
<glyph glyph-name="cent" horiz-adv-x="334" unicode="¢" d="M328 47q-41 -34 -98 -44l-6 -88h-101l7 101q-47 21 -76.5 75t-29.5 131q0 86 37.5 152t98.5 87l6 93h101l-6 -83q15 -2 29.5 -6t21.5 -7l7 -3l-28 -77q-20 6 -42 6q-44 0 -74.5 -42.5t-30.5 -114.5q0 -64 25 -99.5t63 -35.5q14 0 30.5 5.5t25.5 10.5l9 6z"/>
<glyph glyph-name="sterling" d="M416 660l-34 -81q-16 5 -35 5q-43 0 -61.5 -33.5t-28.5 -97.5q-1 -2 -10 -62h115v-84h-128l-15 -84q-6 -36 -10 -53.5t-14.5 -37.5t-26.5 -32v-2h232v-98h-355l-17 92q38 12 53 42t25 89l13 84h-79v76l93 7l13 82q16 98 60 149t130 51q19 0 39 -3t31 -6z" unicode="£"/>
<glyph glyph-name="currency" d="M306 259q0 80 -25 128t-61 48q-37 0 -62 -47.5t-25 -127.5q0 -78 26 -127.5t61 -49.5t60.5 48.5t25.5 127.5zM385 95l71 -80l-51 -51l-64 72q-51 -48 -121 -48q-71 0 -122 48l-64 -72l-50 51q46 53 70 80q-37 63 -37 165t37 163l-70 80l50 52l64 -73q16 16 49 32t73 16 q39 0 72 -16t49 -32l64 73l51 -52l-71 -80q37 -61 37 -163t-37 -165z" unicode="¤"/>
<glyph glyph-name="yen" d="M441 656l-102 -241h76v-79h-109l-29 -67v-33h138v-79h-137v-157h-116v157h-137v79h137v33l-28 67h-109v79h75l-101 240l120 7l102 -288h2l103 288z" unicode="¥"/>
<glyph glyph-name="brokenbar" horiz-adv-x="220" unicode="¦" d="M165 -255h-110v325h110v-325zM165 390h-110v325h110v-325z"/>
<glyph glyph-name="section" d="M298 254q0 38 -17 59.5t-49 38.5q-13 7 -37 20.5t-26 14.5q0 -1 -6 -11t-11.5 -20.5t-10 -26.5t-4.5 -29q0 -38 17 -59.5t49 -38.5q13 -7 37 -20.5t26 -14.5q0 1 6 11t11.5 20.5t10 26.5t4.5 29zM406 269q0 -31 -9 -58t-20 -44t-35 -50q43 -43 43 -115q0 -82 -53 -128 t-132 -46q-36 0 -72.5 8t-55.5 16l-19 8l29 83q44 -19 90 -19q37 0 64.5 19t27.5 53q0 26 -17 47.5t-42.5 35t-55.5 32.5t-55.5 39t-42.5 55t-17 80q0 31 9 58t20 44t35 50q-43 43 -43 115q0 82 53 128t132 46q36 0 72.5 -8t55.5 -16l19 -8l-29 -83q-44 19 -90 19 q-37 0 -64.5 -19t-27.5 -53q0 -26 17 -47.5t42.5 -35t55.5 -32.5t55.5 -39t42.5 -55t17 -80z" unicode="§"/>
<glyph glyph-name="dieresis" horiz-adv-x="278" unicode="¨" d="M114 647q0 -26 -17.5 -44.5t-42.5 -18.5t-42.5 18.5t-17.5 44.5t17.5 44.5t42.5 18.5t42.5 -18.5t17.5 -44.5zM283 647q0 -26 -18 -44.5t-43 -18.5q-24 0 -41.5 18.5t-17.5 44.5t17.5 44.5t41.5 18.5q25 0 43 -18.5t18 -44.5z"/>
<glyph glyph-name="copyright" horiz-adv-x="793" unicode="©" d="M502 162q-48 -26 -110 -26q-74 0 -125 55t-51 145q0 86 54 142.5t132 56.5q26 0 50.5 -4.5t36.5 -8.5l12 -5l-20 -59q-26 10 -61 10q-51 0 -86 -37t-35 -97q0 -57 31 -92.5t76 -35.5q18 0 36 4t28 8l9 3zM658 337q0 110 -75.5 187.5t-184.5 77.5q-111 0 -187 -77.5 t-76 -190.5q0 -109 77 -186t185 -77q109 0 185 77.5t76 188.5zM745 337q0 -145 -101.5 -247t-246.5 -102q-144 0 -246.5 101t-102.5 245q0 147 101.5 249t248.5 102q144 0 245.5 -102t101.5 -246z"/>
<glyph glyph-name="ordfeminine" horiz-adv-x="309" unicode="ª" d="M179 424v75q-71 -4 -71 -56q0 -40 31 -40q19 0 40 21zM269 340h-79l-5 31q-33 -39 -77 -39q-35 0 -62 28t-27 78q0 64 47 90.5t113 27.5v9q-1 26 -10 39t-30 13q-15 0 -34 -5.5t-31 -10.5l-12 -5l-23 63q63 33 121 33q56 0 84 -34q25 -30 25 -88v-230z"/>
<glyph glyph-name="guillemotleft" horiz-adv-x="475" unicode="«" d="M240 91l-80 -44l-110 188l111 187l79 -43l-70 -143zM405 99l-79 -44l-102 180l102 180l79 -44l-66 -135z"/>
<glyph glyph-name="logicalnot" d="M423 22h-102v170h-304v102h406v-272z" unicode="¬"/>
<glyph glyph-name="uni00AD" horiz-adv-x="249" unicode="­" d="M232 195h-215v93h215v-93z"/>
<glyph glyph-name="registered" horiz-adv-x="405" unicode="®" d="M226 544q0 12 -8.5 19t-22.5 7h-20v-54h17q34 0 34 28zM277 407l-43 -1l-25 56q-12 26 -31 26h-2v-82h-37v194h54q70 0 70 -52q0 -19 -11.5 -32.5t-32.5 -16.5q11 -3 25 -29zM337 504q0 56 -39.5 96.5t-94.5 40.5q-57 0 -96 -40.5t-39 -98.5q0 -56 39.5 -96t95.5 -40 q55 0 94.5 40.5t39.5 97.5zM384 504q0 -75 -53 -128.5t-128 -53.5t-128.5 52.5t-53.5 127.5q0 76 53 129.5t129 53.5q75 0 128 -53t53 -128z"/>
<glyph glyph-name="macron" horiz-adv-x="278" unicode="¯" d="M254 606h-232v81h232v-81z"/>
<glyph glyph-name="degree" d="M300 515q0 36 -23.5 62t-56.5 26q-32 0 -55.5 -25.5t-23.5 -62.5t23.5 -63t55.5 -26t56 26t24 63zM369 515q0 -63 -44 -108t-105 -45t-105 45t-44 108t43.5 107.5t105.5 44.5t105.5 -44.5t43.5 -107.5z" unicode="°"/>
<glyph glyph-name="plusminus" d="M423 -6h-406v98h406v-98zM423 259h-151v-117h-104v117h-151v98h151v117h104v-117h151v-98z" unicode="±"/>
<glyph glyph-name="twosuperior" horiz-adv-x="395" unicode="²" d="M308 408h-245l-12 65q6 6 16.5 17t37.5 42.5t47.5 61.5t37.5 68t17 68q0 61 -51 61q-15 0 -34.5 -5t-31.5 -10l-12 -5l-21 64q70 35 125 35q53 0 86 -35t33 -99q0 -68 -42.5 -137.5t-86.5 -113.5l136 2v-79z"/>
<glyph glyph-name="threesuperior" horiz-adv-x="395" unicode="³" d="M313 541q0 -39 -19.5 -68t-51 -44t-64.5 -22t-67 -7l-47 4l20 65q15 -2 28 -2q14 0 29 3t34 10t31 24t12 40q0 62 -78 62l-35 -4l-4 64q101 16 101 78q0 22 -14.5 35.5t-40.5 13.5q-12 0 -27 -4t-24 -8l-10 -4l-20 63q57 30 109 30q49 0 85 -29.5t36 -81.5 q0 -72 -66 -112q37 -11 60 -39t23 -67z"/>
<glyph glyph-name="acute" horiz-adv-x="278" unicode="´" d="M248 659l-179 -112l-46 53l156 148z"/>
<glyph glyph-name="mu" horiz-adv-x="461" unicode="µ" d="M411 0h-110l-6 54q-6 -6 -16.5 -15.5t-38 -25t-49.5 -15.5l-24 2l2 -268h-120v758h121v-312q0 -71 44 -71q16 0 35 9.5t30 19.5l11 9v345h121v-490z"/>
<glyph glyph-name="paragraph" horiz-adv-x="504" unicode="¶" d="M452 4q0 -101 -28.5 -161t-99.5 -126l-61 61q22 22 44 62q30 60 30 144v676h115v-656zM276 235h-31q-98 0 -160.5 56.5t-62.5 165.5q0 55 20.5 96.5t54 63.5t70.5 32.5t76 10.5h33v-425z"/>
<glyph glyph-name="periodcentered" horiz-adv-x="250" unicode="·" d="M196 246q0 -30 -20.5 -51t-50.5 -21t-50.5 21t-20.5 51t20.5 51t50.5 21t50.5 -21t20.5 -51z"/>
<glyph glyph-name="cedilla" horiz-adv-x="278" unicode="¸" d="M240 -160q0 -60 -49.5 -88t-107.5 -28l-48 4l21 61q15 -4 26 -4q12 0 25 2.5t27.5 14.5t14.5 32q0 48 -68 48l-13 -1l-7 9l16 110h61l-8 -58q45 -5 77.5 -28t32.5 -74z"/>
<glyph glyph-name="onesuperior" horiz-adv-x="395" unicode="¹" d="M318 408h-234v75h72v297l-64 -41l-46 67l136 74l64 -27v-370h72v-75z"/>
<glyph glyph-name="ordmasculine" horiz-adv-x="309" unicode="º" d="M207 511q0 49 -16 77t-37 28q-22 0 -36.5 -26t-14.5 -76q0 -49 15.5 -77.5t35.5 -28.5q23 0 38 26.5t15 76.5zM301 511q0 -78 -39.5 -128.5t-107.5 -50.5q-70 0 -108 52t-38 130t39.5 128t106.5 50q70 0 108.5 -51.5t38.5 -129.5z"/>
<glyph glyph-name="guillemotright" horiz-adv-x="475" unicode="»" d="M252 235l-103 -180l-79 44l67 137l-66 135l79 44zM425 235l-110 -188l-79 44l70 145l-70 143l79 43z"/>
<glyph glyph-name="onequarter" horiz-adv-x="940" unicode="¼" d="M749 345l-80 -174l79 1zM318 264h-234v75h72v297l-64 -41l-46 67l136 73l64 -26v-370h72v-75zM670 715l-310 -739h-91l311 739h90zM885 99h-48v-99h-89v99h-154l-11 60l162 313l92 -29v-271l48 1v-74z"/>
<glyph glyph-name="onehalf" horiz-adv-x="940" unicode="½" d="M318 264h-234v75h72v297l-64 -41l-46 67l136 73l64 -26v-370h72v-75zM670 715l-310 -739h-91l311 739h90zM853 0h-245l-11 65q1 0 13.5 13t32 35t34.5 41q76 99 76 168q0 62 -52 62q-36 0 -78 -21l-20 64q69 35 125 35q53 0 86 -34.5t33 -98.5q0 -68 -42.5 -137.5 t-86.5 -114.5l135 2v-79z"/>
<glyph glyph-name="threequarters" horiz-adv-x="940" unicode="¾" d="M749 345l-80 -174l79 1zM313 398q0 -39 -19.5 -68t-51 -44t-64.5 -22t-67 -7l-47 4l20 65q15 -2 28 -2q14 0 29 3t34 10t31 24t12 40q0 62 -78 62l-35 -4l-4 64q101 16 101 78q0 49 -55 49q-12 0 -27 -4t-24 -8l-10 -4l-20 63q57 30 109 30q48 0 84.5 -30t36.5 -81 q0 -72 -66 -112q37 -11 60 -39t23 -67zM670 715l-310 -739h-91l311 739h90zM885 99h-48v-99h-89v99h-154l-11 60l162 313l92 -29v-271l48 1v-74z"/>
<glyph glyph-name="questiondown" horiz-adv-x="370" unicode="¿" d="M329 -182q-70 -37 -143 -37q-74 0 -120 40t-46 120q0 110 123 184v144h97l16 -180l-9 -16q-107 -57 -107 -124q0 -34 20.5 -50.5t51.5 -16.5q18 0 39.5 5.5t34.5 10.5l13 6zM261 416q0 -30 -20.5 -51t-50.5 -21t-50.5 21t-20.5 51t20.5 51t50.5 21t50.5 -21t20.5 -51z "/>
<glyph glyph-name="Agrave" horiz-adv-x="539" unicode="À" d="M339 255l-71 276h-2l-70 -276h143zM535 3l-132 -5l-44 168h-185l-43 -168l-127 5l207 677h116zM382 770l-44 -53l-182 115l68 89z"/>
<glyph glyph-name="Aacute" horiz-adv-x="539" unicode="Á" d="M339 255l-71 276h-2l-70 -276h143zM535 3l-132 -5l-44 168h-185l-43 -168l-127 5l207 677h116zM383 830l-182 -113l-47 53l160 151z"/>
<glyph glyph-name="Acircumflex" horiz-adv-x="539" unicode="Â" d="M339 255l-71 276h-2l-70 -276h143zM535 3l-132 -5l-44 168h-185l-43 -168l-127 5l207 677h116zM406 774l-48 -54l-89 80l-89 -80l-46 54l136 150z"/>
<glyph glyph-name="Atilde" horiz-adv-x="539" unicode="Ã" d="M339 255l-71 276h-2l-70 -276h143zM535 3l-132 -5l-44 168h-185l-43 -168l-127 5l207 677h116zM413 816q-5 -7 -13.5 -17.5t-33 -28t-46.5 -17.5q-21 0 -54 18.5t-50 18.5q-25 0 -53 -34l-38 61q5 7 13.5 17.5t33 27.5t46.5 17t54 -18.5t49 -18.5t32.5 12.5t21.5 22.5z "/>
<glyph glyph-name="Adieresis" horiz-adv-x="539" unicode="Ä" d="M339 255l-71 276h-2l-70 -276h143zM535 3l-132 -5l-44 168h-185l-43 -168l-127 5l207 677h116zM244 817q0 -26 -18 -45t-43 -19t-42.5 19t-17.5 45t17.5 45t42.5 19t43 -19t18 -45zM415 817q0 -26 -18 -45t-43 -19t-42.5 19t-17.5 45t17.5 45t42.5 19t43 -19t18 -45z"/>
<glyph glyph-name="Aring" horiz-adv-x="539" unicode="Å" d="M339 255l-71 276h-2l-70 -276h143zM312 827q0 23 -12.5 39t-30.5 16t-30.5 -16.5t-12.5 -39.5t12.5 -39t30.5 -16t30.5 16.5t12.5 39.5zM535 3l-132 -5l-44 168h-185l-43 -168l-127 5l207 677h116zM366 827q0 -44 -28.5 -75t-69.5 -31q-40 0 -68 31t-28 74q0 44 28 75 t69 31q40 0 68.5 -31.5t28.5 -73.5z"/>
<glyph glyph-name="AE" horiz-adv-x="647" unicode="Æ" d="M340 255l-44 280h-2l-85 -280h131zM627 0h-246l-27 166h-170l-51 -168l-129 5l235 677h382v-104h-219l31 -180h157v-92h-142l33 -198h146v-106z"/>
<glyph glyph-name="Ccedilla" horiz-adv-x="439" unicode="Ç" d="M426 22q-52 -27 -111 -32l-6 -48q45 -5 77.5 -28t32.5 -74q0 -60 -50 -88t-107 -28l-48 4l21 61q15 -4 27 -4t25 2.5t27.5 14.5t14.5 32q0 26 -21 37t-48 11l-14 -1l-6 9l14 100q-96 13 -158.5 107t-62.5 243q0 151 78.5 251.5t191.5 100.5q30 0 61 -5t46 -11l16 -5 l-29 -99q-31 10 -69 10q-72 0 -120.5 -69t-48.5 -175q0 -110 42.5 -171.5t107.5 -61.5q19 0 39.5 4.5t31.5 8.5l11 4z"/>
<glyph glyph-name="Egrave" horiz-adv-x="415" unicode="È" d="M390 0h-330v680h325v-104h-208v-180h181v-92h-181v-198h213v-106zM336 770l-45 -53l-182 115l67 89z"/>
<glyph glyph-name="Eacute" horiz-adv-x="415" unicode="É" d="M390 0h-330v680h325v-104h-208v-180h181v-92h-181v-198h213v-106zM337 830l-183 -113l-46 53l160 151z"/>
<glyph glyph-name="Ecircumflex" horiz-adv-x="415" unicode="Ê" d="M390 0h-330v680h325v-104h-208v-180h181v-92h-181v-198h213v-106zM358 774l-47 -54l-89 80l-88 -80l-47 54l135 150z"/>
<glyph glyph-name="Edieresis" horiz-adv-x="415" unicode="Ë" d="M390 0h-330v680h325v-104h-208v-180h181v-92h-181v-198h213v-106zM198 817q0 -26 -18 -45t-43 -19t-43 19t-18 45t18 45t43 19t43 -19t18 -45zM369 817q0 -26 -18 -45t-43 -19t-43 19t-18 45t18 45t43 19t43 -19t18 -45z"/>
<glyph glyph-name="Igrave" horiz-adv-x="250" unicode="Ì" d="M186 0h-122v680h122v-680zM238 770l-44 -53l-183 115l67 89z"/>
<glyph glyph-name="Iacute" horiz-adv-x="250" unicode="Í" d="M186 0h-122v680h122v-680zM239 830l-181 -113l-47 53l159 151z"/>
<glyph glyph-name="Icircumflex" horiz-adv-x="250" unicode="Î" d="M186 0h-122v680h122v-680zM262 774l-48 -54l-89 80l-88 -80l-47 54l136 150z"/>
<glyph glyph-name="Idieresis" horiz-adv-x="250" unicode="Ï" d="M186 0h-122v680h122v-680zM100 817q0 -26 -18 -45t-43 -19t-43 19t-18 45t18 45t43 19t43 -19t18 -45zM272 817q0 -26 -18 -45t-43 -19t-43 19t-18 45t18 45t43 19t43 -19t18 -45z"/>
<glyph glyph-name="Eth" horiz-adv-x="560" unicode="Ð" d="M403 349q0 96 -50 161.5t-141 65.5h-30v-182h111v-90h-111v-197h16q88 0 146.5 55t58.5 187zM527 353q0 -166 -87.5 -259.5t-277.5 -93.5h-102v304h-70v90h70v286h142q85 0 150 -28.5t102 -76.5t55 -104t18 -118z"/>
<glyph glyph-name="Ntilde" horiz-adv-x="565" unicode="Ñ" d="M426 816q-5 -7 -13.5 -17.5t-32.5 -28t-46 -17.5q-21 0 -54 18.5t-50 18.5q-26 0 -54 -34l-38 61q5 7 13.5 17.5t33.5 27.5t47 17q21 0 53.5 -18.5t49.5 -18.5q16 0 31.5 12.5t21.5 22.5zM506 5l-110 -8l-230 466v-2l4 -461h-110v675l110 8l229 -465l2 -1l-5 463h110 v-675z"/>
<glyph glyph-name="Ograve" horiz-adv-x="556" unicode="Ò" d="M398 337q0 109 -34.5 173.5t-85.5 64.5q-54 0 -86.5 -62t-32.5 -170q0 -109 34 -173.5t85 -64.5q55 0 87.5 62t32.5 170zM523 337q0 -162 -69 -255.5t-176 -93.5q-108 0 -176.5 96.5t-68.5 258.5q0 161 69 255t176 94q108 0 176.5 -96.5t68.5 -258.5zM390 770l-43 -53 l-183 115l68 89z"/>
<glyph glyph-name="Oacute" horiz-adv-x="556" unicode="Ó" d="M398 337q0 109 -34.5 173.5t-85.5 64.5q-54 0 -86.5 -62t-32.5 -170q0 -109 34 -173.5t85 -64.5q55 0 87.5 62t32.5 170zM523 337q0 -162 -69 -255.5t-176 -93.5q-108 0 -176.5 96.5t-68.5 258.5q0 161 69 255t176 94q108 0 176.5 -96.5t68.5 -258.5zM392 830l-182 -113 l-46 53l158 151z"/>
<glyph glyph-name="Ocircumflex" horiz-adv-x="556" unicode="Ô" d="M398 337q0 109 -34.5 173.5t-85.5 64.5q-54 0 -86.5 -62t-32.5 -170q0 -109 34 -173.5t85 -64.5q55 0 87.5 62t32.5 170zM523 337q0 -162 -69 -255.5t-176 -93.5q-108 0 -176.5 96.5t-68.5 258.5q0 161 69 255t176 94q108 0 176.5 -96.5t68.5 -258.5zM414 774l-47 -54 l-90 80l-87 -80l-48 54l136 150z"/>
<glyph glyph-name="Otilde" horiz-adv-x="556" unicode="Õ" d="M421 816q-5 -7 -13.5 -17.5t-32.5 -28t-46 -17.5t-54.5 18.5t-49.5 18.5q-26 0 -54 -34l-38 61q5 7 13.5 17.5t33.5 27.5t47 17q21 0 53.5 -18.5t49.5 -18.5q16 0 31.5 12.5t21.5 22.5zM398 337q0 109 -34.5 173.5t-85.5 64.5q-54 0 -86.5 -62t-32.5 -170 q0 -109 34 -173.5t85 -64.5q55 0 87.5 62t32.5 170zM523 337q0 -162 -69 -255.5t-176 -93.5q-108 0 -176.5 96.5t-68.5 258.5q0 161 69 255t176 94q108 0 176.5 -96.5t68.5 -258.5z"/>
<glyph glyph-name="Odieresis" horiz-adv-x="556" unicode="Ö" d="M398 337q0 109 -34.5 173.5t-85.5 64.5q-54 0 -86.5 -62t-32.5 -170q0 -109 34 -173.5t85 -64.5q55 0 87.5 62t32.5 170zM523 337q0 -162 -69 -255.5t-176 -93.5q-108 0 -176.5 96.5t-68.5 258.5q0 161 69 255t176 94q108 0 176.5 -96.5t68.5 -258.5zM253 817 q0 -26 -17.5 -45t-42.5 -19t-43 19t-18 45t18 45t43 19t42.5 -19t17.5 -45zM424 817q0 -26 -17.5 -45t-42.5 -19t-43 19t-18 45t18 45t43 19t42.5 -19t17.5 -45z"/>
<glyph glyph-name="multiply" d="M423 105l-71 -71l-132 136l-132 -136l-71 71l136 137l-136 137l71 71l132 -136l132 136l71 -71l-136 -137z" unicode="×"/>
<glyph glyph-name="Oslash" horiz-adv-x="556" unicode="Ø" d="M159 343q0 -71 14 -124l172 320q-28 36 -67 36q-54 0 -86.5 -62t-32.5 -170zM398 337q0 35 -4 66.5t-8 45.5l-4 14l-173 -320q30 -38 69 -38q55 0 87.5 62t32.5 170zM523 337q0 -162 -69 -255.5t-176 -93.5q-73 0 -129 45l-46 -87l-61 31l59 108q-68 99 -68 258 q0 161 69 255t176 94q72 0 127 -43l46 85l61 -31l-58 -107q69 -96 69 -259z"/>
<glyph glyph-name="Ugrave" horiz-adv-x="524" unicode="Ù" d="M469 225q0 -114 -57.5 -175.5t-149.5 -61.5q-94 0 -150 63t-56 179v450h122v-443q0 -141 87 -141q85 0 85 141v443h119v-455zM375 770l-44 -53l-183 115l68 89z"/>
<glyph glyph-name="Uacute" horiz-adv-x="524" unicode="Ú" d="M469 225q0 -114 -57.5 -175.5t-149.5 -61.5q-94 0 -150 63t-56 179v450h122v-443q0 -141 87 -141q85 0 85 141v443h119v-455zM376 830l-182 -113l-47 53l160 151z"/>
<glyph glyph-name="Ucircumflex" horiz-adv-x="524" unicode="Û" d="M469 225q0 -114 -57.5 -175.5t-149.5 -61.5q-94 0 -150 63t-56 179v450h122v-443q0 -141 87 -141q85 0 85 141v443h119v-455zM399 774l-48 -54l-89 80l-89 -80l-46 54l136 150z"/>
<glyph glyph-name="Udieresis" horiz-adv-x="524" unicode="Ü" d="M469 225q0 -114 -57.5 -175.5t-149.5 -61.5q-94 0 -150 63t-56 179v450h122v-443q0 -141 87 -141q85 0 85 141v443h119v-455zM237 817q0 -26 -18 -45t-43 -19t-43 19t-18 45t18 45t43 19t43 -19t18 -45zM408 817q0 -26 -18 -45t-43 -19t-43 19t-18 45t18 45t43 19t43 -19 t18 -45z"/>
<glyph glyph-name="Yacute" horiz-adv-x="476" unicode="Ý" d="M474 677l-176 -390v-287h-122v287l-174 389l130 6l107 -297h2l106 297zM352 830l-182 -113l-46 53l158 151z"/>
<glyph glyph-name="Thorn" horiz-adv-x="466" unicode="Þ" d="M328 346q0 119 -110 119h-36v-226q23 -6 49 -6q42 0 69.5 30t27.5 83zM448 348q0 -98 -63.5 -154t-148.5 -56l-54 5v-143h-122v680h122v-123h28q111 0 174.5 -51t63.5 -158z"/>
<glyph glyph-name="germandbls" horiz-adv-x="467" unicode="ß" d="M452 133q0 -73 -46 -109t-99 -36q-24 0 -50 6t-40 12l-14 5l31 81q19 -9 45 -9q23 0 39 13.5t16 40.5q0 24 -19 50t-42.5 46.5t-42.5 54t-19 70.5q0 32 15 62.5t32.5 50.5t32.5 49.5t15 60.5q0 34 -17 55t-43 21q-76 0 -76 -149v-508h-121v522q0 105 53 166t146 61 q72 0 124 -44.5t52 -120.5q0 -42 -16.5 -77t-36 -54t-36 -42.5t-16.5 -45.5t21 -46.5t45.5 -44.5t45.5 -58t21 -83z"/>
<glyph glyph-name="agrave" horiz-adv-x="414" unicode="à" d="M248 115v116q-47 0 -79.5 -20t-32.5 -67q0 -31 14 -47.5t36 -16.5q14 0 29.5 9t24.5 17zM366 0h-104l-7 49h-2q-5 -7 -14.5 -17t-38.5 -27t-59 -17q-49 0 -85.5 38.5t-36.5 109.5q0 48 21 83t56 52.5t72.5 25.5t79.5 8v14q0 41 -13.5 63.5t-50.5 22.5q-20 0 -46.5 -7.5 t-43.5 -15.5l-16 -7l-29 81q85 47 166 47q77 0 117 -50q34 -42 34 -124v-329zM318 600l-43 -52l-180 113l67 87z"/>
<glyph glyph-name="aacute" horiz-adv-x="414" unicode="á" d="M248 115v116q-47 0 -79.5 -20t-32.5 -67q0 -31 14 -47.5t36 -16.5q14 0 29.5 9t24.5 17zM366 0h-104l-7 49h-2q-5 -7 -14.5 -17t-38.5 -27t-59 -17q-49 0 -85.5 38.5t-36.5 109.5q0 48 21 83t56 52.5t72.5 25.5t79.5 8v14q0 41 -13.5 63.5t-50.5 22.5q-20 0 -46.5 -7.5 t-43.5 -15.5l-16 -7l-29 81q85 47 166 47q77 0 117 -50q34 -42 34 -124v-329zM319 659l-179 -112l-46 53l156 148z"/>
<glyph glyph-name="acircumflex" horiz-adv-x="414" unicode="â" d="M248 115v116q-47 0 -79.5 -20t-32.5 -67q0 -31 14 -47.5t36 -16.5q14 0 29.5 9t24.5 17zM366 0h-104l-7 49h-2q-5 -7 -14.5 -17t-38.5 -27t-59 -17q-49 0 -85.5 38.5t-36.5 109.5q0 48 21 83t56 52.5t72.5 25.5t79.5 8v14q0 41 -13.5 63.5t-50.5 22.5q-20 0 -46.5 -7.5 t-43.5 -15.5l-16 -7l-29 81q85 47 166 47q77 0 117 -50q34 -42 34 -124v-329zM339 600l-48 -53l-87 79l-87 -78l-46 52l134 148z"/>
<glyph glyph-name="atilde" horiz-adv-x="414" unicode="ã" d="M349 646q-5 -7 -13.5 -17t-33 -27t-46.5 -17q-21 0 -53.5 18t-48.5 18q-26 0 -52 -34l-38 60q5 7 13.5 17.5t33 27.5t46.5 17q21 0 53.5 -18.5t48.5 -18.5q29 0 53 34zM248 115v116q-47 0 -79.5 -20t-32.5 -67q0 -31 14 -47.5t36 -16.5q14 0 29.5 9t24.5 17zM366 0h-104 l-7 49h-2q-5 -7 -14.5 -17t-38.5 -27t-59 -17q-49 0 -85.5 38.5t-36.5 109.5q0 48 21 83t56 52.5t72.5 25.5t79.5 8v14q0 41 -13.5 63.5t-50.5 22.5q-20 0 -46.5 -7.5t-43.5 -15.5l-16 -7l-29 81q85 47 166 47q77 0 117 -50q34 -42 34 -124v-329z"/>
<glyph glyph-name="adieresis" horiz-adv-x="414" unicode="ä" d="M248 115v116q-47 0 -79.5 -20t-32.5 -67q0 -31 14 -47.5t36 -16.5q14 0 29.5 9t24.5 17zM366 0h-104l-7 49h-2q-5 -7 -14.5 -17t-38.5 -27t-59 -17q-49 0 -85.5 38.5t-36.5 109.5q0 48 21 83t56 52.5t72.5 25.5t79.5 8v14q0 41 -13.5 63.5t-50.5 22.5q-20 0 -46.5 -7.5 t-43.5 -15.5l-16 -7l-29 81q85 47 166 47q77 0 117 -50q34 -42 34 -124v-329zM181 647q0 -26 -17.5 -44.5t-41.5 -18.5q-25 0 -43 18.5t-18 44.5t18 44.5t43 18.5q24 0 41.5 -18.5t17.5 -44.5zM350 647q0 -26 -17.5 -44.5t-42.5 -18.5t-42.5 18.5t-17.5 44.5t17.5 44.5 t42.5 18.5t42.5 -18.5t17.5 -44.5z"/>
<glyph glyph-name="aring" horiz-adv-x="414" unicode="å" d="M248 115v116q-47 0 -79.5 -20t-32.5 -67q0 -31 14 -47.5t36 -16.5q14 0 29.5 9t24.5 17zM247 643q0 22 -12 37t-30 15t-29.5 -15t-11.5 -38q0 -22 11.5 -38t29.5 -16t30 16t12 39zM366 0h-104l-7 49h-2q-5 -7 -14.5 -17t-38.5 -27t-59 -17q-49 0 -85.5 38.5t-36.5 109.5 q0 48 21 83t56 52.5t72.5 25.5t79.5 8v14q0 41 -13.5 63.5t-50.5 22.5q-20 0 -46.5 -7.5t-43.5 -15.5l-16 -7l-29 81q85 47 166 47q77 0 117 -50q34 -42 34 -124v-329zM301 643q0 -43 -27.5 -74t-68.5 -31q-40 0 -67.5 30.5t-27.5 73.5t27.5 73.5t68.5 30.5q40 0 67.5 -30.5 t27.5 -72.5z"/>
<glyph glyph-name="ae" horiz-adv-x="626" unicode="æ" d="M268 112q-20 48 -20 104v4q-46 0 -79 -18.5t-33 -61.5q0 -29 16 -45t41 -16q16 0 34.5 8.5t29.5 16.5zM496 303q0 37 -14 73.5t-42 36.5q-32 0 -52 -39.5t-25 -78.5zM330 442q5 7 13.5 17t37 27t59.5 17q43 0 76.5 -24t52 -62.5t28 -81t9.5 -84.5l-11 -21l-230 -8 q0 -54 23.5 -95.5t77.5 -41.5q37 0 97 30l30 -71q-10 -8 -28 -18.5t-57.5 -24t-76.5 -13.5q-23 0 -44.5 6.5t-36 16t-25.5 19.5t-16 16l-5 7q-9 -7 -24 -18t-55.5 -29t-75.5 -18q-54 0 -92 38.5t-38 109.5q0 37 14.5 66t36.5 45.5t53.5 27.5t61 14.5t63.5 3.5v26 q0 41 -13.5 63.5t-50.5 22.5q-20 0 -46.5 -7.5t-43.5 -15.5l-16 -7l-29 81q85 47 166 47q40 0 68.5 -15.5t37.5 -30.5z"/>
<glyph glyph-name="ccedilla" horiz-adv-x="344" unicode="ç" d="M329 -160q0 -60 -49.5 -88t-107.5 -28l-48 4l20 61q16 -4 27 -4q12 0 25 2.5t27.5 14.5t14.5 32q0 48 -68 48l-13 -1l-8 9l16 102q-60 14 -100 76.5t-40 159.5q0 115 58.5 195t144.5 80q24 0 49 -5.5t39 -11.5l13 -6l-29 -83q-21 7 -44 7q-45 0 -76.5 -46t-31.5 -124 q0 -70 26 -108.5t65 -38.5q15 0 31.5 6t25.5 12l10 6l32 -73q-50 -39 -113 -48l-7 -48q46 -5 78.5 -28t32.5 -74z"/>
<glyph glyph-name="egrave" horiz-adv-x="411" unicode="è" d="M281 303q0 37 -14 73.5t-42 36.5q-32 0 -52.5 -40t-25.5 -80zM390 251l-10 -21l-231 -8q0 -33 8 -62t32 -52t61 -23q38 0 98 30l30 -71q-10 -8 -27.5 -18.5t-58 -24t-79.5 -13.5q-80 0 -134 69t-54 180q0 103 58 184.5t142 81.5q57 0 96 -42.5t54 -96.5t15 -113zM324 600 l-43 -52l-180 113l67 87z"/>
<glyph glyph-name="eacute" horiz-adv-x="411" unicode="é" d="M281 303q0 37 -14 73.5t-42 36.5q-32 0 -52.5 -40t-25.5 -80zM390 251l-10 -21l-231 -8q0 -33 8 -62t32 -52t61 -23q38 0 98 30l30 -71q-10 -8 -27.5 -18.5t-58 -24t-79.5 -13.5q-80 0 -134 69t-54 180q0 103 58 184.5t142 81.5q57 0 96 -42.5t54 -96.5t15 -113zM325 659 l-179 -112l-46 53l157 148z"/>
<glyph glyph-name="ecircumflex" horiz-adv-x="411" unicode="ê" d="M281 303q0 37 -14 73.5t-42 36.5q-32 0 -52.5 -40t-25.5 -80zM390 251l-10 -21l-231 -8q0 -33 8 -62t32 -52t61 -23q38 0 98 30l30 -71q-10 -8 -27.5 -18.5t-58 -24t-79.5 -13.5q-80 0 -134 69t-54 180q0 103 58 184.5t142 81.5q57 0 96 -42.5t54 -96.5t15 -113zM347 600 l-47 -53l-88 79l-87 -78l-47 52l134 148z"/>
<glyph glyph-name="edieresis" horiz-adv-x="411" unicode="ë" d="M281 303q0 37 -14 73.5t-42 36.5q-32 0 -52.5 -40t-25.5 -80zM390 251l-10 -21l-231 -8q0 -33 8 -62t32 -52t61 -23q38 0 98 30l30 -71q-10 -8 -27.5 -18.5t-58 -24t-79.5 -13.5q-80 0 -134 69t-54 180q0 103 58 184.5t142 81.5q57 0 96 -42.5t54 -96.5t15 -113zM188 647 q0 -26 -17 -44.5t-42 -18.5t-43 18.5t-18 44.5t18 44.5t43 18.5t42 -18.5t17 -44.5zM358 647q0 -26 -17.5 -44.5t-42.5 -18.5t-42.5 18.5t-17.5 44.5t17.5 44.5t42.5 18.5t42.5 -18.5t17.5 -44.5z"/>
<glyph glyph-name="igrave" horiz-adv-x="228" unicode="ì" d="M174 0h-120v490h120v-490zM226 600l-44 -52l-180 113l67 87z"/>
<glyph glyph-name="iacute" horiz-adv-x="228" unicode="í" d="M174 0h-120v490h120v-490zM227 659l-180 -112l-46 53l158 148z"/>
<glyph glyph-name="icircumflex" horiz-adv-x="228" unicode="î" d="M174 0h-120v490h120v-490zM248 600l-46 -53l-89 79l-86 -78l-47 52l134 148z"/>
<glyph glyph-name="idieresis" horiz-adv-x="228" unicode="ï" d="M174 0h-120v490h120v-490zM90 647q0 -26 -17.5 -44.5t-42.5 -18.5t-43 18.5t-18 44.5t18 44.5t43 18.5t42.5 -18.5t17.5 -44.5zM260 647q0 -26 -18 -44.5t-43 -18.5t-42.5 18.5t-17.5 44.5t17.5 44.5t42.5 18.5t43 -18.5t18 -44.5z"/>
<glyph glyph-name="eth" horiz-adv-x="445" unicode="ð" d="M214 557q-3 4 -23 24l-77 -73l-42 42l64 64q-46 31 -98 44l13 92q92 -14 166 -64l67 65l43 -42l-59 -58q37 -37 43 -44q48 -55 78.5 -147.5t30.5 -200.5q0 -119 -55 -195t-144 -76q-86 0 -141 71.5t-55 174.5q0 100 55 169.5t135 69.5q16 0 28.5 -5.5t16.5 -11.5l5 -5 q-11 59 -51 106zM298 229q0 67 -21 108t-55 41q-35 0 -54.5 -39t-19.5 -105t20.5 -107.5t53.5 -41.5q35 0 55.5 40t20.5 104z"/>
<glyph glyph-name="ntilde" horiz-adv-x="458" unicode="ñ" d="M373 646q-5 -7 -13.5 -17t-33 -27t-46.5 -17q-21 0 -53.5 18t-48.5 18q-26 0 -52 -34l-38 60q5 7 13.5 17.5t33 27.5t45.5 17t53.5 -18.5t48.5 -18.5q30 0 54 34zM411 0h-121v311q0 72 -43 72q-16 0 -35 -9.5t-30 -19.5l-12 -10v-344h-121v490h111l6 -53q10 10 27 23 t47 28t55 15q39 0 73 -32q43 -43 43 -150v-321z"/>
<glyph glyph-name="ograve" horiz-adv-x="456" unicode="ò" d="M308 243q0 73 -23 116.5t-56 43.5q-37 0 -59 -41t-22 -115q0 -73 23.5 -116t57.5 -43q36 0 57.5 40t21.5 115zM432 243q0 -112 -55.5 -183.5t-148.5 -71.5q-97 0 -150 73.5t-53 185.5t55 184t149 72q97 0 150 -74t53 -186zM340 600l-43 -52l-181 113l67 87z"/>
<glyph glyph-name="oacute" horiz-adv-x="456" unicode="ó" d="M308 243q0 73 -23 116.5t-56 43.5q-37 0 -59 -41t-22 -115q0 -73 23.5 -116t57.5 -43q36 0 57.5 40t21.5 115zM432 243q0 -112 -55.5 -183.5t-148.5 -71.5q-97 0 -150 73.5t-53 185.5t55 184t149 72q97 0 150 -74t53 -186zM341 659l-180 -112l-46 53l157 148z"/>
<glyph glyph-name="ocircumflex" horiz-adv-x="456" unicode="ô" d="M308 243q0 73 -23 116.5t-56 43.5q-37 0 -59 -41t-22 -115q0 -73 23.5 -116t57.5 -43q36 0 57.5 40t21.5 115zM432 243q0 -112 -55.5 -183.5t-148.5 -71.5q-97 0 -150 73.5t-53 185.5t55 184t149 72q97 0 150 -74t53 -186zM362 600l-47 -53l-87 79l-88 -78l-46 52 l134 148z"/>
<glyph glyph-name="otilde" horiz-adv-x="456" unicode="õ" d="M371 646q-5 -7 -13.5 -17t-33 -27t-46.5 -17q-21 0 -53.5 18t-48.5 18q-26 0 -52 -34l-39 60q5 7 14 17.5t33.5 27.5t45.5 17t53.5 -18.5t48.5 -18.5q30 0 54 34zM308 243q0 73 -23 116.5t-56 43.5q-37 0 -59 -41t-22 -115q0 -73 23.5 -116t57.5 -43q36 0 57.5 40 t21.5 115zM432 243q0 -112 -55.5 -183.5t-148.5 -71.5q-97 0 -150 73.5t-53 185.5t55 184t149 72q97 0 150 -74t53 -186z"/>
<glyph glyph-name="odieresis" horiz-adv-x="456" unicode="ö" d="M308 243q0 73 -23 116.5t-56 43.5q-37 0 -59 -41t-22 -115q0 -73 23.5 -116t57.5 -43q36 0 57.5 40t21.5 115zM432 243q0 -112 -55.5 -183.5t-148.5 -71.5q-97 0 -150 73.5t-53 185.5t55 184t149 72q97 0 150 -74t53 -186zM204 647q0 -26 -18 -44.5t-43 -18.5t-42.5 18.5 t-17.5 44.5t17.5 44.5t42.5 18.5t43 -18.5t18 -44.5zM373 647q0 -26 -18 -44.5t-43 -18.5t-42.5 18.5t-17.5 44.5t17.5 44.5t42.5 18.5t43 -18.5t18 -44.5z"/>
<glyph glyph-name="divide" d="M285 67q0 -28 -19 -46.5t-46 -18.5t-46 18.5t-19 46.5t19 47t46 19t46 -19t19 -47zM422 193h-404v98h404v-98zM285 416q0 -28 -19 -46.5t-46 -18.5t-46 18.5t-19 46.5t19 47t46 19t46 -19t19 -47z" unicode="÷"/>
<glyph glyph-name="oslash" horiz-adv-x="456" unicode="ø" d="M148 247q0 -42 8 -70l112 207q-19 19 -39 19q-37 0 -59 -41t-22 -115zM308 243q0 20 -2 37.5t-4 25.5l-1 7l-113 -207q21 -18 41 -18q36 0 57.5 40t21.5 115zM432 243q0 -112 -55.5 -183.5t-148.5 -71.5q-52 0 -91 22l-33 -60l-57 28l40 72q-62 72 -62 197q0 112 55 184 t149 72q26 0 48.5 -5.5t32.5 -11.5l9 -6l33 61l57 -29l-39 -72q62 -73 62 -197z"/>
<glyph glyph-name="ugrave" horiz-adv-x="458" unicode="ù" d="M409 0h-110l-6 54q-11 -11 -28 -24t-47 -27.5t-54 -14.5q-43 0 -73 32q-44 43 -44 148v322h121v-312q0 -71 44 -71q16 0 35 9.5t30 19.5l11 9v345h121v-490zM342 600l-43 -52l-181 113l67 87z"/>
<glyph glyph-name="uacute" horiz-adv-x="458" unicode="ú" d="M409 0h-110l-6 54q-11 -11 -28 -24t-47 -27.5t-54 -14.5q-43 0 -73 32q-44 43 -44 148v322h121v-312q0 -71 44 -71q16 0 35 9.5t30 19.5l11 9v345h121v-490zM344 659l-180 -112l-47 53l158 148z"/>
<glyph glyph-name="ucircumflex" horiz-adv-x="458" unicode="û" d="M409 0h-110l-6 54q-11 -11 -28 -24t-47 -27.5t-54 -14.5q-43 0 -73 32q-44 43 -44 148v322h121v-312q0 -71 44 -71q16 0 35 9.5t30 19.5l11 9v345h121v-490zM365 600l-48 -53l-87 79l-87 -78l-46 52l134 148z"/>
<glyph glyph-name="udieresis" horiz-adv-x="458" unicode="ü" d="M409 0h-110l-6 54q-11 -11 -28 -24t-47 -27.5t-54 -14.5q-43 0 -73 32q-44 43 -44 148v322h121v-312q0 -71 44 -71q16 0 35 9.5t30 19.5l11 9v345h121v-490zM204 647q0 -26 -17.5 -44.5t-42.5 -18.5t-43 18.5t-18 44.5t18 44.5t43 18.5t42.5 -18.5t17.5 -44.5zM373 647 q0 -26 -17.5 -44.5t-42.5 -18.5t-43 18.5t-18 44.5t18 44.5t43 18.5t42.5 -18.5t17.5 -44.5z"/>
<glyph glyph-name="yacute" horiz-adv-x="427" unicode="ý" d="M425 490l-160 -520q-36 -117 -90 -171q-26 -26 -61 -42.5t-57 -20.5l-22 -3l-22 79q27 9 47 20t43.5 38.5t37.5 67.5l19 54l-158 498h133l80 -373h2l85 373h123zM328 659l-181 -112l-45 53l157 148z"/>
<glyph glyph-name="thorn" horiz-adv-x="462" unicode="þ" d="M314 255q0 58 -19.5 94t-50.5 36q-15 0 -33.5 -10t-29.5 -20l-11 -10v-218q28 -20 59 -20q39 0 62 40.5t23 107.5zM438 251q0 -100 -47 -181.5t-124 -81.5q-24 0 -48 11t-37 22l-12 11v-293h-121v997h121v-295q1 1 2 1q8 8 21 19t42.5 26.5t53.5 15.5q68 0 108.5 -71.5 t40.5 -180.5z"/>
<glyph glyph-name="OE" horiz-adv-x="790" unicode="Œ" d="M383 337q0 108 -33 173t-79 65q-49 0 -80.5 -62.5t-31.5 -169.5q0 -108 33 -173t79 -65q49 0 80.5 62.5t31.5 169.5zM769 21q-67 -33 -142 -33q-37 0 -69.5 12.5t-52 30t-34 34.5t-19.5 29l-6 13h-1q-65 -119 -176 -119q-102 0 -169 97t-67 258q0 160 67.5 254.5 t168.5 94.5q35 0 66 -13t50.5 -31.5t34 -37t20.5 -31.5l7 -13q7 14 19 29.5t37 40t62.5 40.5t80.5 16q29 0 59.5 -6t46.5 -12l16 -5l-33 -97q-30 10 -68 10q-72 0 -114 -59.5t-48 -124.5h198v-96h-201q2 -77 41.5 -137t103.5 -60q20 0 40.5 4.5t30.5 8.5l10 5z"/>
<glyph glyph-name="oe" horiz-adv-x="673" unicode="œ" d="M294 243q0 75 -21 117.5t-52 42.5q-33 0 -53 -40.5t-20 -115.5q0 -74 21.5 -116.5t51.5 -42.5q33 0 53 39.5t20 115.5zM543 303q0 37 -14 73.5t-42 36.5q-31 0 -52 -40t-26 -80zM486 503q43 0 77 -24t52.5 -62.5t27.5 -81t9 -84.5l-10 -21l-231 -8q0 -33 8 -62t32 -52 t61 -23q38 0 98 30l31 -71q-80 -56 -164 -56q-25 0 -47 7.5t-35.5 18t-23.5 21.5t-14 19l-4 7q-2 -3 -5 -8t-14.5 -17.5t-25.5 -22t-37.5 -17.5t-50.5 -8q-90 0 -142.5 74t-52.5 185t54.5 183.5t141.5 72.5q29 0 53.5 -8.5t39.5 -20.5t25.5 -24.5t14.5 -21.5l5 -8q2 3 5.5 9 t15.5 20t25.5 25t35.5 20t45 9z"/>
<glyph glyph-name="Scaron" horiz-adv-x="391" unicode="Š" d="M369 177q0 -94 -58.5 -141.5t-136.5 -47.5q-38 0 -78 9t-61 17l-21 9l29 99q55 -23 110 -23q39 0 65 21t26 56q0 31 -22.5 60.5t-55 55.5t-64.5 55t-54.5 70t-22.5 88q0 93 57.5 140t130.5 47q34 0 70 -7.5t55 -14.5l19 -8l-28 -94q-49 17 -92 17q-40 0 -64.5 -19.5 t-24.5 -57.5q0 -29 23 -57.5t55.5 -55t64.5 -56t55 -71.5t23 -91zM335 870l-137 -150l-135 150l47 54l89 -80l88 79z"/>
<glyph glyph-name="scaron" horiz-adv-x="323" unicode="š" d="M306 137q0 -52 -27 -87.5t-62 -48.5t-74 -13q-30 0 -63.5 9t-51.5 18l-18 9l31 81q41 -21 86 -21q27 0 43 14.5t16 36.5q0 18 -17 36t-42 34.5t-49.5 35.5t-41.5 48t-17 65q0 71 51.5 110t111.5 39q28 0 58.5 -7.5t46.5 -14.5l16 -7l-27 -80q-39 15 -76 15q-27 0 -45 -13 t-18 -38q0 -24 26.5 -47.5t58 -41.5t58 -53t26.5 -79zM296 695l-134 -148l-134 148l46 53l88 -79l87 79z"/>
<glyph glyph-name="Ydieresis" horiz-adv-x="476" unicode="Ÿ" d="M474 677l-176 -390v-287h-122v287l-174 389l130 6l107 -297h2l106 297zM213 817q0 -26 -18 -45t-43 -19t-42.5 19t-17.5 45t17.5 45t42.5 19t43 -19t18 -45zM384 817q0 -26 -18 -45t-43 -19t-42.5 19t-17.5 45t17.5 45t42.5 19t43 -19t18 -45z"/>
<glyph glyph-name="circumflex" horiz-adv-x="278" unicode="ˆ" d="M272 600l-46 -53l-88 79l-88 -78l-46 52l134 148z"/>
<glyph glyph-name="tilde" horiz-adv-x="278" unicode="˜" d="M281 646q-5 -7 -13.5 -17t-33 -27t-46.5 -17q-21 0 -53 18t-48 18q-27 0 -53 -34l-38 60q5 7 13.5 17.5t33 27.5t46.5 17q21 0 53.5 -18.5t48.5 -18.5q29 0 53 34z"/>
<glyph glyph-name="uni0394" d="M329 86l-108 417l-107 -417h215zM448 0h-456l181 620h94z" unicode="Δ"/>
<glyph glyph-name="uni03BC" horiz-adv-x="461" unicode="μ" d="M411 0h-110l-6 54q-6 -6 -16.5 -15.5t-38 -25t-49.5 -15.5l-24 2l2 -268h-120v758h121v-312q0 -71 44 -71q16 0 35 9.5t30 19.5l11 9v345h121v-490z"/>
<glyph glyph-name="pi" horiz-adv-x="544" unicode="π" d="M551 9q-45 -21 -94 -21q-74 0 -110 60q-22 39 -22 98v255h-120v-401h-118v401h-79v80l72 9h449v-89h-85v-258q0 -39 13 -53t36 -14l27 3z"/>
<glyph glyph-name="endash" horiz-adv-x="500" unicode="–" d="M457 197h-414v90h414v-90z"/>
<glyph glyph-name="emdash" horiz-adv-x="1000" unicode="—" d="M903 196h-806v91h806v-91z"/>
<glyph glyph-name="quoteleft" horiz-adv-x="220" unicode="‘" d="M202 703q-46 -77 -46 -190l-119 -17q0 159 101 249z"/>
<glyph glyph-name="quotesinglbase" horiz-adv-x="220" unicode="‚" d="M171 124q0 -159 -101 -249l-65 43q46 77 46 190z"/>
<glyph glyph-name="quotedblleft" horiz-adv-x="400" unicode="“" d="M203 703q-46 -77 -46 -190l-120 -17q0 159 101 249zM382 703q-46 -77 -46 -190l-119 -17q0 159 101 249z"/>
<glyph glyph-name="quotedblright" horiz-adv-x="400" unicode="”" d="M187 745q0 -159 -101 -249l-65 42q46 77 46 190zM366 745q0 -159 -101 -249l-64 42q46 77 46 190z"/>
<glyph glyph-name="dagger" d="M423 381h-144l-8 -631h-102l-9 631h-143v84l144 5l8 190h102l8 -190l144 -5v-84z" unicode="†"/>
<glyph glyph-name="daggerdbl" d="M423 4l-149 -5l-3 -249h-102l-3 249l-149 5v83h147l-4 294h-143v84l144 5l8 190h102l8 -190l144 -5v-84h-144l-4 -294h148v-83z" unicode="‡"/>
<glyph glyph-name="ellipsis" horiz-adv-x="1000" unicode="…" d="M238 61q0 -30 -20.5 -50.5t-50.5 -20.5t-50.5 20.5t-20.5 50.5t20.5 51.5t50.5 21.5t50.5 -21.5t20.5 -51.5zM571 61q0 -30 -20.5 -50.5t-50.5 -20.5t-50.5 20.5t-20.5 50.5t20.5 51.5t50.5 21.5t50.5 -21.5t20.5 -51.5zM904 61q0 -30 -20.5 -50.5t-50.5 -20.5 t-50.5 20.5t-20.5 50.5t20.5 51.5t50.5 21.5t50.5 -21.5t20.5 -51.5z"/>
<glyph glyph-name="perthousand" horiz-adv-x="1290" unicode="‰" d="M300 536q0 53 -16.5 84t-38.5 31q-24 0 -40 -29.5t-16 -83.5q0 -53 16.5 -84t39.5 -31q24 0 39.5 29.5t15.5 83.5zM751 177q0 53 -16.5 84t-39.5 31q-24 0 -39.5 -29.5t-15.5 -83.5q0 -53 16.5 -84t38.5 -31q24 0 40 29.5t16 83.5zM1101 177q0 53 -16.5 84t-39.5 31 q-24 0 -39.5 -29.5t-15.5 -83.5q0 -53 16.5 -84t38.5 -31q24 0 40 29.5t16 83.5zM393 536q0 -82 -41 -135.5t-107 -53.5q-69 0 -108.5 54.5t-39.5 136.5t41 135.5t107 53.5q69 0 108.5 -54.5t39.5 -136.5zM666 715l-311 -739h-90l310 739h91zM843 177q0 -82 -41 -135.5 t-107 -53.5q-69 0 -108.5 54.5t-39.5 136.5t41 135.5t107 53.5q69 0 108.5 -54.5t39.5 -136.5zM1193 177q0 -82 -41 -135.5t-107 -53.5q-69 0 -108.5 54.5t-39.5 136.5t41 135.5t107 53.5q69 0 108.5 -54.5t39.5 -136.5z"/>
<glyph glyph-name="guilsinglleft" horiz-adv-x="310" unicode="‹" d="M240 91l-80 -44l-110 188l111 187l79 -43l-70 -143z"/>
<glyph glyph-name="guilsinglright" horiz-adv-x="310" unicode="›" d="M260 235l-111 -188l-79 44l70 145l-70 143l79 43z"/>
<glyph glyph-name="fraction" horiz-adv-x="150" unicode="⁄" d="M275 715l-310 -739h-91l311 739h90z"/>
<glyph glyph-name="Euro" d="M400 11q-58 -23 -138 -23q-72 0 -123 37t-51 108q0 27 9 49.5t19 31.5l9 9v1h-88l12 76h326q-13 -50 -19 -76h-57q-38 0 -64.5 -17t-26.5 -52q0 -71 96 -71q16 0 32.5 2.5t25.5 5.5l8 2zM389 443l-19 -75h-326l12 75h75v1q-4 3 -11 9.5t-18 29.5t-11 49q0 61 43 100.5 t114 39.5q37 0 72 -8t52 -16l16 -7l-28 -77q-35 13 -68 13q-84 0 -84 -67q0 -37 29.5 -52t67.5 -15h84z" unicode="€"/>
<glyph glyph-name="trademark" horiz-adv-x="577" unicode="™" d="M225 603h-70v-258h-84v258h-70v69h224v-69zM575 346l-78 -2l-31 202l-41 -201h-74l-40 201l-32 -202l-76 2l65 327l71 -2l49 -224l52 224l71 2z"/>
<glyph glyph-name="arrowleft" horiz-adv-x="1000" unicode="←" d="M975 279l-742 5l217 -209l-82 -82l-343 343v2l343 343l82 -82l-217 -209l742 5v-116z"/>
<glyph glyph-name="arrowup" horiz-adv-x="1000" unicode="↑" d="M844 469l-82 -82l-209 217l5 -742h-116l5 742l-209 -217l-82 82l343 343h2z"/>
<glyph glyph-name="arrowright" horiz-adv-x="1000" unicode="→" d="M975 336l-343 -343l-82 82l217 209l-742 -5v116l742 -5l-217 209l82 82l343 -343v-2z"/>
<glyph glyph-name="arrowdown" horiz-adv-x="1000" unicode="↓" d="M844 205l-343 -343h-2l-343 343l82 82l209 -217l-5 742h116l-5 -742l209 217z"/>
<glyph glyph-name="arrowdblleft" horiz-adv-x="1000" unicode="⇐" d="M975 279l-739 5l296 -284h-171l-336 336v2l336 336h171l-296 -284l739 5v-116z"/>
<glyph glyph-name="arrowdblup" horiz-adv-x="1000" unicode="⇑" d="M837 305l-284 296l5 -739h-116l5 739l-284 -296v171l336 336h2l336 -336v-171z"/>
<glyph glyph-name="arrowdblright" horiz-adv-x="1000" unicode="⇒" d="M975 336l-336 -336h-171l296 284l-739 -5v116l739 -5l-296 284h171l336 -336v-2z"/>
<glyph glyph-name="arrowdbldown" horiz-adv-x="1000" unicode="⇓" d="M837 198l-336 -336h-2l-336 336v171l284 -296l-5 739h116l-5 -739l284 296v-171z"/>
<glyph glyph-name="partialdiff" horiz-adv-x="432" unicode="∂" d="M289 222q0 65 -20 105t-53 40q-34 0 -53 -38t-19 -102q0 -63 20 -103.5t52 -40.5q34 0 53.5 38.5t19.5 100.5zM408 251q0 -115 -53.5 -189t-139.5 -74q-84 0 -137.5 69.5t-53.5 169.5q0 97 54 164.5t131 67.5q31 0 46 -20q-12 61 -47 102q-30 36 -78 61.5t-93 36.5l13 89 q153 -23 252 -139q46 -54 76 -144t30 -194z"/>
<glyph glyph-name="product" horiz-adv-x="580" unicode="∏" d="M563 561h-100v-561h-118v561h-110v-561h-118v561h-100v99h546v-99z"/>
<glyph glyph-name="summation" d="M397 0h-340l-9 101l159 244l-159 217l9 98h334v-98h-218l1 -1l141 -204v-24l-144 -229l1 -1h225v-103z" unicode="∑"/>
<glyph glyph-name="minus" d="M422 191h-404v102h404v-102z" unicode="−"/>
<glyph glyph-name="radical" horiz-adv-x="625" unicode="√" d="M613 722l-260 -722h-116l-181 472l118 5l120 -357l1 1l201 606z"/>
<glyph glyph-name="infinity" horiz-adv-x="679" unicode="∞" d="M276 230q-37 45 -46 54q-36 38 -61 38q-27 0 -46.5 -26t-19.5 -63q0 -36 19.5 -62.5t46.5 -26.5q35 0 107 86zM576 233q0 37 -19.5 63t-46.5 26q-9 0 -20 -5t-19 -11t-20 -18.5t-18 -19t-18 -21.5t-15 -18q23 -29 36.5 -43.5t33.5 -28t38 -13.5q29 0 48.5 26t19.5 63z M669 233q0 -75 -44.5 -128.5t-107.5 -53.5q-25 0 -49.5 9.5t-49.5 29.5t-39.5 34.5t-40.5 41.5q-39 -40 -58.5 -58.5t-52.5 -37.5t-63 -19q-63 0 -108.5 53t-45.5 129t45.5 128.5t108.5 52.5q31 0 64.5 -20t53 -40.5t55.5 -61.5q38 41 59 61.5t55 40.5t65 20q63 0 108 -53 t45 -128z"/>
<glyph glyph-name="approxequal" d="M433 139q-64 -85 -129 -85q-32 0 -84.5 29.5t-76.5 29.5q-21 0 -44.5 -19.5t-35.5 -36.5l-57 68q64 85 129 85q32 0 84.5 -29.5t76.5 -29.5q21 0 44.5 19.5t35.5 36.5zM433 345q-64 -85 -129 -85q-32 0 -84.5 29.5t-76.5 29.5q-21 0 -44.5 -19.5t-35.5 -36.5l-57 68 q64 85 129 85q32 0 84.5 -29.5t76.5 -29.5q21 0 44.5 19.5t35.5 36.5z" unicode="≈"/>
<glyph glyph-name="notequal" d="M422 180v-102h-278l-77 -106l-56 38l49 68h-42v102h116l89 124h-205v102h278l77 106l56 -38l-49 -68h42v-102h-116l-88 -124h204z" unicode="≠"/>
<glyph glyph-name="lessequal" d="M17 363l406 129v-99l-310 -87l310 -89v-97l-406 129v114zM423 -6h-406v98h406v-98z" unicode="≤"/>
<glyph glyph-name="greaterequal" d="M423 -6h-406v98h406v-98zM423 249l-406 -129v99l310 87l-310 89v97l406 -129v-114z" unicode="≥"/>
<glyph glyph-name="lozenge" d="M304 310l-84 223l-84 -223l84 -223zM405 310l-136 -310h-98l-136 310l136 310h98z" unicode="◊"/>
</font>
</defs>
</svg>
